<?xml version="1.0" standalone="no"?>
<!DOCTYPE svg PUBLIC "-//W3C//DTD SVG 20010904//EN"
 "http://www.w3.org/TR/2001/REC-SVG-20010904/DTD/svg10.dtd">
<svg version="1.0" xmlns="http://www.w3.org/2000/svg"
 width="256.000000pt" height="256.000000pt" viewBox="0 0 256.000000 256.000000"
 preserveAspectRatio="xMidYMid meet">

<g transform="translate(0.000000,256.000000) scale(0.100000,-0.100000)"
fill="#000000" stroke="none">
<path d="M0 1280 l0 -1280 1280 0 1280 0 0 1280 0 1280 -1280 0 -1280 0 0
-1280z m1660 710 l0 -150 -431 0 -431 0 4 104 c3 118 16 147 79 178 31 16 72
18 407 18 l372 0 0 -150z m277 124 c51 -37 63 -77 63 -201 l0 -113 -130 0
-130 0 0 171 0 171 84 -3 c66 -3 91 -9 113 -25z m-557 -552 c0 -141 3 -201 12
-210 8 -8 63 -12 180 -12 l168 0 0 -487 c0 -469 -1 -489 -20 -521 -11 -18 -34
-41 -52 -52 -32 -19 -52 -20 -628 -20 -576 0 -596 1 -628 20 -18 11 -41 34
-52 52 -19 32 -20 52 -20 678 0 626 1 646 20 678 11 18 34 41 52 52 32 19 52
20 501 20 l467 0 0 -198z m291 175 c56 -37 69 -76 69 -204 l0 -113 -140 0
-140 0 0 170 0 170 89 0 c75 0 93 -3 122 -23z m329 -639 c0 -573 -1 -626 -18
-657 -23 -47 -61 -72 -116 -78 l-46 -6 -2 664 c-2 365 -7 672 -12 682 -7 16 0
17 93 17 l101 0 0 -622z"/>
<path d="M590 1091 c-15 -29 -12 -49 9 -61 13 -6 170 -10 443 -10 469 0 472 0
453 57 l-10 28 -442 3 c-429 2 -442 2 -453 -17z"/>
<path d="M590 851 c-15 -29 -12 -49 9 -61 13 -6 170 -10 443 -10 469 0 472 0
453 57 l-10 28 -442 3 c-429 2 -442 2 -453 -17z"/>
<path d="M590 611 c-15 -29 -12 -49 9 -61 13 -6 170 -10 443 -10 469 0 472 0
453 57 l-10 28 -442 3 c-429 2 -442 2 -453 -17z"/>
<path d="M588 364 c-9 -18 -9 -30 -1 -42 9 -15 43 -17 353 -17 310 0 344 2
353 17 8 12 8 24 -1 42 l-12 26 -340 0 -340 0 -12 -26z"/>
</g>
</svg>
